ply
format ascii 1.0
comment Created in Blender version 4.2.3 LTS
element vertex 354
property float x
property float y
property float z
property float nx
property float ny
property float nz
property float texture_u
property float texture_v
element face 442
property list uchar uint vertex_indices
end_header
3.051758e-08 6.8395787e-09 0.1926091 -2.414415e-09 -2.9681395e-09 1 0.1655233 0.5547776
-0.02573493 8.895028e-09 0.189221 -0.27734625 -2.5119727e-08 0.9607701 0.2095125 0.5547776
-0.02278714 -0.011959609 0.189221 -0.24557908 -0.12888986 0.96076965 0.2044738 0.5752204
-0.01461905 -0.021179428 0.189221 -0.15754986 -0.2282521 0.9607701 0.190512 0.5909801
-0.00310199 -0.025547288 0.189221 -0.03343069 -0.27532405 0.9607701 0.1708254 0.5984462
0.009125794 -0.024062568 0.189221 0.09834784 -0.25932404 0.9607699 0.1499243 0.5959083
0.01926294 -0.017065408 0.189221 0.20759773 -0.1839153 0.9607697 0.1325966 0.5839479
0.02498718 -0.0061587663 0.189221 0.2692879 -0.06637219 0.9607699 0.122812 0.5653049
0.02498715 0.006158781 0.189221 0.26928663 0.06637347 0.96077013 0.122812 0.5442501
0.01926291 0.017065423 0.189221 0.20759751 0.18391514 0.96076983 0.1325966 0.5256071
0.009125764 0.024062593 0.189221 0.098348744 0.25932482 0.96076965 0.1499243 0.5136467
-0.00310199 0.025547303 0.189221 -0.03343056 0.27532357 0.96077025 0.1708255 0.5111089
-0.01461908 0.021179443 0.189221 -0.15755141 0.22825225 0.96076983 0.1905121 0.518575
-0.02278714 0.011959622 0.189221 -0.24557883 0.12888916 0.96076983 0.2044738 0.5343347
-0.04971604 9.329226e-09 0.1792877 -0.5147289 7.616012e-07 0.85735303 0.2505041 0.5547776
-0.02824195 -0.040915526 0.1792877 -0.29239967 -0.42361343 0.857353 0.2137978 0.6247155
-0.005992554 -0.049353566 0.1792877 -0.062043607 -0.5109768 0.85735255 0.1757665 0.6391389
0.01762961 -0.046485327 0.1792877 0.18252578 -0.48127976 0.85735303 0.1353885 0.6342361
0.04827145 -0.0118978275 0.1792877 0.49977133 -0.12318216 0.85735345 0.08301158 0.5751148
0.04827145 0.011897842 0.1792877 0.49977216 0.12318187 0.85735303 0.08301158 0.5344402
0.03721305 0.03296786 0.1792877 0.3852807 0.34132814 0.857353 0.101914 0.4984247
-0.005992584 0.049353603 0.1792877 -0.062044606 0.51097566 0.8573531 0.1757665 0.4704161
-0.04402136 0.023104202 0.1792877 -0.45576918 0.23920532 0.8573537 0.2407701 0.5152849
-0.07030912 8.11259e-09 0.163486 -0.71682256 -1.84642e-06 0.69725573 0.2857044 0.5547776
-0.04402136 -0.023104208 0.1792877 -0.45577002 -0.23920502 0.8573533 0.24077 0.5942702
-0.06225562 -0.032674287 0.163486 -0.6347137 -0.33312604 0.69725573 0.2719384 0.6106285
-0.0399401 -0.057863288 0.163486 -0.40720004 -0.5899346 0.6972556 0.2337939 0.6536847
0.02493201 -0.06574019 0.163486 0.2541867 -0.67024165 0.69725555 0.1229063 0.6671489
0.0526272 -0.046623576 0.163486 0.53654796 -0.47534278 0.69725573 0.07556616 0.6344724
0.03721308 -0.032967847 0.1792877 0.38528058 -0.34132743 0.85735315 0.101914 0.6111303
0.06826612 -0.016826078 0.163486 0.6959919 -0.17154695 0.69725674 0.0488342 0.5835388
0.06826612 0.016826082 0.163486 0.6959928 0.17154787 0.6972556 0.0488342 0.5260163
0.02493204 0.065740205 0.163486 0.25419122 0.6702398 0.6972557 0.1229063 0.4424061
0.01762961 0.046485353 0.1792877 0.18252459 0.48127943 0.85735345 0.1353885 0.4753189
-0.008474793 0.06979654 0.163486 -0.08640124 0.71159613 0.6972559 0.1800095 0.4354725
-0.03994013 0.057863303 0.163486 -0.40720057 0.5899345 0.6972554 0.2337939 0.4558703
-0.02824195 0.04091554 0.1792877 -0.29240003 0.42361256 0.85735327 0.213798 0.4848395
-0.06225565 0.03267427 0.163486 -0.634714 0.3331229 0.697257 0.2719384 0.4989265
-0.07624729 -0.040017657 0.142893 -0.77109295 -0.40469986 0.49156258 0.2958546 0.6231807
-0.04891644 -0.070867755 0.142893 -0.49469382 -0.71668905 0.49156365 0.2491373 0.6759136
-0.008474793 -0.069796495 0.163486 -0.08640424 -0.7115971 0.6972546 0.1800093 0.6740825
-0.01037946 -0.08548292 0.142893 -0.10496746 -0.8644929 0.49156287 0.1832651 0.7008957
0.03053534 -0.08051497 0.142893 0.30880576 -0.8142516 0.49156234 0.1133283 0.6924039
0.0644549 -0.057101987 0.142893 0.65183544 -0.57747453 0.49156266 0.05534883 0.6523834
0.08360858 -0.020607645 0.142893 0.84553754 -0.2084053 0.4915625 0.02260894 0.5900027
0.08360858 0.020607665 0.142893 0.845537 0.20840676 0.49156255 0.02260894 0.5195523
0.0526272 0.04662359 0.163486 0.5365508 0.47534147 0.6972545 0.07556616 0.4750826
0.06445487 0.057102013 0.142893 0.65183455 0.5774757 0.49156243 0.05534883 0.4571716
0.03053534 0.08051499 0.142893 0.30880398 0.814252 0.4915626 0.1133283 0.4171512
-0.01037949 0.08548296 0.142893 -0.10497002 0.8644927 0.49156263 0.1832651 0.4086593
-0.07624729 0.040017653 0.142893 -0.77109164 0.40470064 0.49156392 0.2958547 0.4863743
-0.09604404 8.1536395e-09 0.1189118 -0.9672096 3.6483556e-07 0.25397983 0.3296938 0.5547776
-0.08611076 1.2827438e-08 0.142893 -0.8708426 2.473235e-07 0.491562 0.3127145 0.5547776
-0.05455924 -0.07904271 0.1189118 -0.5494366 -0.7959984 0.2539804 0.2587827 0.6898873
-0.01157681 -0.09534379 0.118911795 -0.1165842 -0.96015745 0.25397983 0.1853117 0.7177511
0.03405777 -0.089802735 0.118911795 0.34297633 -0.9043571 0.25397977 0.1073074 0.7082797
0.07189008 -0.063689 0.1189118 0.7239659 -0.6413794 0.25398016 0.04263964 0.6636428
0.09325324 -0.022984846 0.1189118 0.9391039 -0.23146914 0.25398004 0.006123087 0.5940661
0.09325324 0.022984855 0.1189118 0.93910426 0.23146757 0.25398028 0.006123087 0.5154889
0.07189005 0.06368902 0.1189118 0.7239674 0.64137775 0.25398013 0.04263964 0.4459122
-0.01157681 0.095343836 0.11891181 -0.11658535 0.96015733 0.25397983 0.1853117 0.3918038
-0.05455924 0.07904274 0.1189118 -0.5494377 0.7959979 0.25397977 0.2587828 0.4196678
-0.04891647 0.070867784 0.142893 -0.4946951 0.7166891 0.49156225 0.2491375 0.4336414
-0.08504285 0.044633895 0.1189118 -0.85642105 0.4494852 0.2539804 0.3108891 0.4784837
-0.09943213 1.30932465e-08 0.09317695 -0.9914448 -5.0887706e-07 0.13052657 0.3354851 0.5547776
-0.08504279 -0.044633903 0.1189118 -0.8564213 -0.4494849 0.25398016 0.310889 0.6310714
-0.08804276 -0.046208423 0.09317695 -0.8778824 -0.4607444 0.13052613 0.316017 0.6337628
-0.05648386 -0.08183106 0.09317695 -0.5632076 -0.81594115 0.13052686 0.2620725 0.6946535
0.03525916 -0.092970654 0.093176946 0.35157433 -0.9270159 0.1305268 0.1052538 0.7136947
0.07442609 -0.0659357 0.09317695 0.74210966 -0.6574467 0.13052677 0.03830486 0.6674832
0.09654287 -0.023795664 0.09317695 0.9626353 -0.23726796 0.13052697 0.0005 0.595452
0.09654287 0.023795675 0.09317695 0.9626361 0.23726456 0.1305272 0.0005 0.514103
0.07442606 0.06593572 0.09317695 0.74210984 0.6574464 0.1305268 0.03830474 0.4420719
0.03405777 0.0898028 0.11891181 0.3429773 0.90435636 0.25398082 0.1073074 0.4012753
0.03525919 0.0929707 0.09317696 0.3515749 0.9270156 0.1305265 0.1052538 0.3958603
-0.0119852 0.0987072 0.09317696 -0.11950203 0.9842166 0.13052648 0.1860099 0.3860548
-0.05648392 0.081831045 0.09317695 -0.5632019 0.81594527 0.13052656 0.2620726 0.4149016
-0.07649235 -0.040146332 0.07806421 -0.88545346 -0.46472818 -1.4968521e-06 0.06629157 0.3140607
-0.08638754 -1.7764158e-07 0.09317695 -0.9709419 -0.23931533 -4.594093e-06 0.007465485 0.3355685
-0.08638754 2.1784011e-07 0.07806421 -0.97094214 -0.2393147 -6.3380303e-06 0.007465485 0.3140607
-0.0490737 -0.07109556 0.07806421 -0.56806463 -0.82298404 8.3931106e-08 0.1251225 0.3140607
-0.07649228 -0.040146474 0.09317695 -0.88545775 -0.46471986 -1.2727327e-07 0.06629157 0.3355685
-0.01041296 -0.08575768 0.093176946 -0.120534405 -0.99270916 1.7721503e-06 0.1839578 0.3355685
-0.04907367 -0.07109557 0.09317695 -0.5680642 -0.8229843 1.1152879e-06 0.1251225 0.3355685
-0.01041263 -0.08575773 0.0780642 -0.12053991 -0.99270856 -2.9931016e-07 0.1839578 0.3140607
0.03063336 -0.08077384 0.09317695 0.35460755 -0.93501526 5.711383e-07 0.2427981 0.3355685
0.0306337 -0.08077369 0.07806421 0.3546031 -0.93501693 -1.7716864e-06 0.2427981 0.3140607
0.06466196 -0.057285674 0.09317695 0.74851346 -0.6631197 3.3768887e-07 0.3016438 0.3355685
0.06466208 -0.057285544 0.07806421 0.74850756 -0.66312635 -9.518345e-07 0.3016438 0.3140607
0.08387731 -0.020674044 0.09317695 0.9709429 -0.23931146 3.1249286e-07 0.3604952 0.3355685
0.08387734 -0.020673893 0.07806421 0.97094065 -0.2393207 -4.0259417e-07 0.3604952 0.3140607
0.08387735 0.020673906 0.09317695 0.970942 0.23931517 5.2408376e-07 0.4193514 0.3355685
0.06466217 0.057285447 0.07806421 0.7485084 0.6631253 -6.925193e-07 0.4782116 0.3140607
0.08387733 0.020673906 0.07806421 0.97094196 0.23931524 1.0460801e-08 0.4193514 0.3140607
0.03063367 0.08077374 0.07806421 0.35460237 0.9350172 -1.7755347e-06 0.5370741 0.3140607
0.06466208 0.057285577 0.09317695 0.7485146 0.6631183 4.8125617e-07 0.4782116 0.3355685
-0.01041284 0.08575772 0.07806422 -0.12054459 0.9927079 -1.9069059e-06 0.5959383 0.3140607
0.03063333 0.080773875 0.09317695 0.35460734 0.9350154 -6.8733175e-07 0.5370741 0.3355685
-0.04907358 0.07109569 0.07806421 -0.56806654 0.8229826 4.4456948e-07 0.6548021 0.3140607
-0.01041263 0.08575776 0.09317696 -0.12052743 0.99271 -1.3684974e-06 0.5959383 0.3355685
-0.07649219 0.040146656 0.07806421 -0.88545567 0.4647241 -4.8974243e-06 0.7136658 0.3140607
-0.04907379 0.071095526 0.09317695 -0.5680605 0.8229869 1.666246e-06 0.6548021 0.3355685
-0.08638754 2.1784011e-07 0.07806421 -0.9709423 0.2393136 1.9677138e-06 0.7725296 0.3140607
-0.0764925 0.040146206 0.09317695 -0.88545513 0.46472487 -1.981175e-06 0.7136658 0.3355685
-0.09943213 2.4643809e-08 -0.1710691 -0.12524089 6.510018e-07 -0.9921264 0.6756224 0.5506194
-0.08504279 -0.04463389 -0.1714968 -0.07904447 -0.041482624 -0.9960076 0.6516326 0.6250331
-0.08804273 -0.04620841 -0.1710691 -0.110897966 -0.058198787 -0.9921263 0.6566341 0.6276581
-0.05455924 -0.07904271 -0.1714969 -0.050717663 -0.073476955 -0.9960064 0.6008103 0.6823995
-0.05648386 -0.08183103 -0.1710691 -0.07116283 -0.10309609 -0.9921226 0.6040191 0.6870482
-0.01157681 -0.09534379 -0.1714969 -0.01076143 -0.08863084 -0.9960064 0.5291499 0.7095766
-0.01198517 -0.098707125 -0.1710691 -0.015100184 -0.124359116 -0.9921225 0.5298309 0.7151841
0.03405774 -0.08980272 -0.1714969 0.03166079 -0.083481096 -0.9960063 0.4530681 0.7003386
0.03525916 -0.09297064 -0.1710691 0.044421464 -0.11713279 -0.9921223 0.4510651 0.7056201
0.07189008 -0.06368899 -0.1714968 0.06681884 -0.05919617 -0.9960076 0.3899941 0.6568017
0.07442609 -0.06593567 -0.1710691 0.0937443 -0.083049975 -0.99212635 0.3857661 0.6605474
0.09325324 -0.022984833 -0.1714968 0.08667521 -0.021362655 -0.9960076 0.3543774 0.5889397
0.09654285 -0.023795642 -0.1710691 0.12160203 -0.029971967 -0.99212635 0.3488929 0.5902916
0.09325324 0.022984868 -0.1714968 0.086673655 0.02136473 -0.99600774 0.3543774 0.5122991
0.09654287 0.023795687 -0.1710691 0.12160139 0.029973868 -0.99212635 0.3488929 0.5109473
0.07189008 0.06368903 -0.1714968 0.06681857 0.059196327 -0.9960077 0.3899941 0.4444371
0.07442606 0.06593573 -0.1710691 0.0937452 0.083049625 -0.9921264 0.385766 0.4406914
0.03405774 0.08980281 -0.1714968 0.03165476 0.08346871 -0.9960076 0.4530681 0.4009002
0.03525916 0.092970714 -0.1710691 0.044411533 0.11710485 -0.99212605 0.4510651 0.3956187
-0.01157681 0.09534385 -0.1714968 -0.010760468 0.088616304 -0.99600774 0.5291499 0.3916622
-0.0119852 0.09870721 -0.1710691 -0.015095757 0.12432601 -0.99212664 0.5298309 0.3860548
-0.05455927 0.07904275 -0.1714968 -0.050710484 0.07346909 -0.99600744 0.6008103 0.4188394
-0.05648392 0.08183106 -0.1710691 -0.07114487 0.103075266 -0.992126 0.6040192 0.4141906
-0.08504282 0.044633888 -0.1714968 -0.07904242 0.04148473 -0.99600774 0.6516326 0.4762058
-0.08804282 0.046208408 -0.1710691 -0.11089512 0.058201753 -0.99212646 0.6566342 0.4735807
-0.08611076 2.4679931e-08 -0.1718955 0.6220605 -1.639246e-07 -0.7829692 0.6152271 0.5552561
-0.09604404 2.4662503e-08 -0.1714968 -0.08926865 1.5980022e-07 -0.9960076 0.6699739 0.5506194
-0.07624729 -0.040017653 -0.1718955 0.55081034 0.28908744 -0.78296655 0.6032212 0.603966
-0.04891644 -0.070867755 -0.1718955 0.35337305 0.5119515 -0.7829644 0.5699539 0.6415171
-0.01037949 -0.0854829 -0.1718955 0.07498215 0.617535 -0.78296113 0.5230461 0.6593068
0.0644549 -0.057101984 -0.1718955 -0.4656279 0.4125082 -0.78296083 0.4319568 0.6247612
0.08360858 0.020607678 -0.1718955 -0.6039954 -0.14887178 -0.7829604 0.4086427 0.5301722
0.06445487 0.05710203 -0.1718955 -0.46562064 -0.41250238 -0.7829683 0.4319568 0.4857508
0.03053534 0.080515005 -0.1718955 -0.22058816 -0.58164006 -0.782966 0.4732442 0.4572523
-0.04891647 0.0708678 -0.1718955 0.35337296 -0.5119479 -0.78296685 0.5699539 0.4689949
-0.07624729 0.040017657 -0.1718955 0.5508164 -0.28908977 -0.7829613 0.6032212 0.5065461
-0.08607465 2.4515446e-08 -0.1681325 0.77932745 -1.03928635e-07 -0.6266169 0.5770413 0.5598927
3.051758e-08 1.8405762e-08 -0.1592645 -4.196213e-09 9.961094e-08 -1 0.5109751 0.5598927
-0.0762153 -0.04000087 -0.1681325 0.69005543 0.3621684 -0.626624 0.5694738 0.5905951
-0.04889594 -0.07083804 -0.1681325 0.4427082 0.64137477 -0.6266162 0.5485049 0.6142641
-0.01037512 -0.085447066 -0.1681325 0.09393593 0.77364165 -0.6266217 0.5189384 0.6254771
0.03052252 -0.08048118 -0.1681325 -0.27635166 0.72868025 -0.6266218 0.4875476 0.6216655
0.06442786 -0.05707804 -0.1681325 -0.58333236 0.516789 -0.62662 0.4615238 0.6037025
0.08357351 -0.020598993 -0.1681325 -0.7566822 0.1865062 -0.6266159 0.4468287 0.5757033
0.08357352 0.020599037 -0.1681325 -0.75667864 -0.186507 -0.6266201 0.4468287 0.5440819
0.06442783 0.05707808 -0.1681325 -0.5833318 -0.5167881 -0.62662125 0.4615238 0.5160827
0.03052252 0.08048124 -0.1681325 -0.27635255 -0.72867835 -0.62662363 0.4875476 0.4981197
-0.01037512 0.08544712 -0.1681325 0.093935065 -0.7736437 -0.62661934 0.5189385 0.4943081
-0.04889597 0.07083809 -0.1681325 0.44270656 -0.64137334 -0.6266188 0.5485049 0.5055212
-0.0762153 0.04000088 -0.1681325 0.6900559 -0.36217186 -0.6266215 0.5694738 0.5291902
-0.09943216 2.1742032e-08 -0.1046842 -0.97094166 -0.2393165 -2.7961346e-07 0.01149731 0.07606673
-0.08804282 -0.046208415 0.07806421 -0.8854559 -0.46472344 -8.812598e-08 0.07008805 0.3010556
-0.09943216 8.031795e-09 0.07806421 -0.9709419 -0.23931548 -1.0460812e-08 0.01149648 0.3010553
-0.05648386 -0.08183103 -0.1046842 -0.5680602 -0.822987 -1.7737418e-07 0.1286802 0.0760673
-0.08804276 -0.046208408 -0.1046842 -0.8854557 -0.4647237 -2.960318e-07 0.07008878 0.07606707
-0.01198517 -0.09870713 -0.104684204 -0.12053675 -0.99270886 -1.06344736e-07 0.1872716 0.07606751
-0.05648386 -0.08183105 0.07806421 -0.5680685 -0.8229814 -1.0541694e-07 0.1286797 0.3010557
0.03525916 -0.09297068 0.0780642 0.35460445 -0.9350164 -3.2976725e-08 0.2458627 0.3010559
-0.0119852 -0.09870715 0.0780642 -0.12053684 -0.99270886 -9.4228234e-08 0.1872711 0.3010558
0.07442612 -0.065935686 -0.1046842 0.74851435 -0.66311866 2.10161e-08 0.3044544 0.07606781
0.03525916 -0.09297066 -0.104684204 0.3546044 -0.9350165 -8.5675055e-08 0.245863 0.07606766
0.09654287 -0.023795646 -0.1046842 0.970942 -0.23931527 1.357255e-07 0.3630456 0.07606786
0.07442609 -0.0659357 0.07806421 0.74850756 -0.6631263 3.233486e-08 0.3044543 0.3010558
0.09654285 0.023795675 0.07806421 0.97094196 0.23931555 1.5726224e-07 0.4216371 0.3010556
0.09654285 -0.023795664 0.07806421 0.97094196 -0.2393153 7.225465e-08 0.3630458 0.3010558
0.07442609 0.065935746 -0.1046842 0.7485075 0.66312635 1.9201413e-07 0.4802281 0.07606786
0.09654288 0.023795694 -0.1046842 0.97094196 0.23931548 2.0346353e-07 0.4216368 0.07606786
0.03525919 0.09297071 -0.10468419 0.35460025 0.9350181 9.588711e-08 0.5388191 0.07606781
0.07442606 0.06593573 0.07806421 0.7485143 0.6631187 1.2235147e-07 0.4802285 0.3010554
-0.01198517 0.09870721 -0.10468419 -0.12054202 0.99270827 3.78479e-08 0.5974103 0.07606769
0.03525919 0.0929707 0.07806422 0.35460985 0.9350144 6.685845e-08 0.5388198 0.3010552
-0.05648389 0.08183106 -0.1046842 -0.56806904 0.8229809 -1.6296635e-08 0.6560013 0.07606746
-0.0119852 0.09870719 0.07806422 -0.120531715 0.9927095 7.847188e-08 0.5974112 0.3010549
-0.08804282 0.046208415 -0.1046842 -0.88545835 0.4647187 -1.8754367e-08 0.7145925 0.07606712
-0.05648392 0.08183104 0.07806421 -0.56806064 0.8229867 5.8746508e-08 0.6560023 0.3010546
-0.09943216 2.1742032e-08 -0.1046842 -0.9709419 0.23931567 3.202523e-10 0.7731834 0.07606673
-0.08804282 0.046208397 0.07806421 -0.8854537 0.46472767 4.6875567e-08 0.7145936 0.3010542
-0.08804276 -0.046208423 0.09317695 0 1.4890007e-07 -1 0.1748632 0.9995
-0.08638754 -1.7764158e-07 0.09317695 0 9.685568e-09 -1 0.1115639 0.9814716
-0.07649228 -0.040146474 0.09317695 0 2.8084129e-08 -1 0.1704199 0.9814716
-0.09943213 1.30932465e-08 0.09317695 0 1.3898088e-07 -1 0.1070492 0.9993816
-0.0764925 0.040146206 0.09317695 0 -1.0284851e-07 -1 0.05940815 0.9540034
-0.08638754 -1.7764158e-07 0.09317695 0 2.660075e-07 -1 0.1114968 0.9813605
-0.08804282 0.046208408 0.09317695 0 -1.494262e-07 -1 0.04709528 0.9678935
-0.04907379 0.071095526 0.09317695 0 -2.4339855e-08 -1 0.02600004 0.9055724
-0.0119852 0.0987072 0.09317696 0 -3.8050274e-07 -1 0.0005 0.8449174
-0.05648392 0.081831045 0.09317695 0 4.371139e-08 -1 0.008642024 0.9121491
0.03525919 0.0929707 0.09317696 0 -3.187656e-08 -1 0.02453682 0.7815999
-0.01041263 0.08575776 0.09317696 0 -4.6221737e-07 -1 0.01892701 0.8471607
0.06466208 0.057285577 0.09317695 0 9.68576e-09 -1 0.0838716 0.753144
0.03063333 0.080773875 0.09317695 0 4.371139e-08 -1 0.03981119 0.7921509
0.09654287 0.023795675 0.09317695 0 -7.171268e-08 -1 0.1410217 0.7205119
0.07442606 0.06593572 0.09317695 0 4.3710834e-08 -1 0.07524907 0.7367023
0.09654287 -0.023795664 0.09317695 0 1.1456944e-08 -1 0.2067894 0.7367402
0.08387735 0.020673906 0.09317695 0 -1.8482692e-07 -1 0.1410164 0.7390787
0.07442609 -0.0659357 0.09317695 0 1.402795e-07 -1 0.2574874 0.7816718
0.08387731 -0.020674044 0.09317695 0 2.9480347e-09 -1 0.1981569 0.7531792
0.03525916 -0.092970654 0.093176946 0 2.0872048e-07 -1 0.2815019 0.8450174
0.06466196 -0.057285674 0.09317695 0 1.2549782e-07 -1 0.2422042 0.7922177
-0.0119852 -0.09870718 0.093176946 0 1.2223025e-07 -1 0.2733314 0.9122673
0.03063336 -0.08077384 0.09317695 0 1.6639095e-07 -1 0.2630685 0.8472539
-0.05648386 -0.08183106 0.09317695 0 -2.576904e-07 -1 0.234847 0.9680188
-0.01041296 -0.08575768 0.093176946 0 8.460438e-08 -1 0.2559697 0.9056821
-0.04907367 -0.07109557 0.09317695 0 -4.008838e-07 -1 0.2225342 0.9541201
-0.09943216 8.031795e-09 0.07806421 0 -3.3983376e-09 1 0.7806458 0.3674738
-0.07649235 -0.040146332 0.07806421 0 -4.3712046e-08 1 0.8439583 0.3855061
-0.08638754 2.1784011e-07 0.07806421 0 -4.371139e-08 1 0.78509 0.3855061
-0.05648386 -0.08183105 0.07806421 0 -3.5357425e-07 1 0.9083995 0.3989532
-0.08804282 -0.046208415 0.07806421 0 -4.3710735e-08 1 0.8484015 0.3674738
-0.0119852 -0.09870715 0.0780642 0 4.067158e-08 1 0.9469047 0.4547038
-0.0490737 -0.07109556 0.07806421 0 -2.8906751e-07 1 0.8960871 0.4128569
0.03525916 -0.09297068 0.0780642 0 -6.176054e-08 1 0.955101 0.5219644
-0.01041263 -0.08575773 0.0780642 0 7.896879e-08 1 0.9295419 0.4612961
0.07442609 -0.0659357 0.07806421 0 -1.5035837e-07 1 0.9311104 0.585333
0.0306337 -0.08077369 0.07806421 0 -8.460466e-08 1 0.9366626 0.5197353
0.09654285 -0.023795664 0.07806421 0 1.1202584e-07 1 0.8804302 0.6302989
0.06466208 -0.057285544 0.07806421 0 -9.147108e-08 1 0.915819 0.5747933
0.09654285 0.023795675 0.07806421 0 -6.455255e-08 1 0.8146698 0.6465698
0.08387734 -0.020673893 0.07806421 0 1.784557e-07 1 0.8717864 0.6138633
0.06466217 0.057285447 0.07806421 0 -1.2549782e-07 1 0.7574974 0.6139842
0.08387733 0.020673906 0.07806421 0 -4.4576243e-08 1 0.8146511 0.6280029
0.07442606 0.06593573 0.07806421 0 -1.3020133e-07 1 0.7488891 0.6304314
0.03063367 0.08077374 0.07806421 0 -2.8182434e-09 1 0.7134094 0.5750229
0.03525919 0.0929707 0.07806422 0 -7.101365e-08 1 0.6981472 0.5855849
-0.01041284 0.08575772 0.07806422 0 9.419251e-08 1 0.69248 0.5200445
-0.0119852 0.09870719 0.07806422 0 6.4132095e-09 1 0.6740596 0.5223041
-0.04907358 0.07109569 0.07806421 0 2.6970037e-07 1 0.6994985 0.4616422
-0.05648392 0.08183104 0.07806421 0 2.6614907e-07 1 0.6821391 0.4550823
-0.07649219 0.040146656 0.07806421 0 3.8076344e-08 1 0.7328545 0.4131927
-0.08804282 0.046208397 0.07806421 0 1.2542497e-08 1 0.7205326 0.3993166
-0.08638754 2.1784011e-07 0.07806421 0 -3.708559e-07 1 0.7849057 0.3857947
-0.01037949 0.085482955 -0.1718955 0.07498129 -0.6175198 -0.78297335 0.5230461 0.4512052
0.08360857 -0.020607632 -0.1718955 -0.60397685 0.14886828 -0.7829753 0.4086427 0.5803399
0.03053534 -0.08051495 -0.1718955 -0.22058634 0.5816329 -0.7829718 0.4732442 0.6532598
-0.08804273 -0.04620841 -0.1710691 -0.8854591 -0.46471745 -1.6926893e-07 0.5428774 0.0161374
-0.09943216 2.0654523e-08 -0.12344 -1 -7.503365e-06 -5.71956e-07 0.4842427 0.07473007
-0.09943213 2.4643809e-08 -0.1710691 -1 6.394467e-06 -5.0922387e-07 0.4842855 0.01609317
-0.05648386 -0.08183103 -0.1710691 -0.56807053 -0.8229799 -3.5973596e-08 0.6014693 0.01618361
-0.08804273 -0.046208415 -0.12344 -0.88545257 -0.46472996 -2.031399e-08 0.5428322 0.07477476
-0.01198517 -0.098707125 -0.1710691 -0.120543264 -0.9927081 -1.4676435e-07 0.6600612 0.01623135
-0.05648386 -0.08183103 -0.12344 -0.56805897 -0.82298785 -6.243566e-08 0.6014224 0.07482128
0.03525916 -0.09297064 -0.1710691 0.35459813 -0.9350188 -4.2372383e-07 0.7186528 0.01628008
-0.01198517 -0.09870713 -0.123440005 -0.120529585 -0.9927098 -2.5546922e-07 0.6600131 0.07486907
0.07442609 -0.06593567 -0.1710691 0.5680645 -0.82298404 -4.073377e-07 0.7772442 0.01632921
0.03525916 -0.09297066 -0.123440005 0.354611 -0.935014 -4.7341015e-07 0.718604 0.07491781
0.09654285 -0.023795642 -0.1710691 0.9709402 -0.23932232 -7.5913164e-08 0.07414241 0.01583038
0.07442609 -0.065935686 -0.12344 0.8854564 -0.46472257 -1.4728201e-07 0.01551461 0.07443339
0.07442609 -0.06593567 -0.1710691 0.8854564 -0.46472254 -2.7437875e-07 0.01555025 0.01579477
0.09654287 0.023795687 -0.1710691 0.9709435 0.23930876 2.2198807e-07 0.1327346 0.0158663
0.09654285 -0.023795644 -0.12344 0.97094357 -0.23930867 9.538641e-08 0.07410677 0.07446896
0.07442606 0.06593573 -0.1710691 0.74851555 0.6631173 -1.13329115e-08 0.1913264 0.01590197
0.09654285 0.023795685 -0.12344 0.9709402 0.23932238 2.2198272e-07 0.1326988 0.07450454
0.03525916 0.092970714 -0.1710691 0.35460487 0.93501633 -1.2473413e-07 0.2499181 0.015938
0.07442606 0.06593574 -0.12344 0.7485062 0.66312784 -2.0282502e-07 0.1912905 0.07454014
-0.01198517 0.09870721 -0.12343989 -0.120529495 0.99270976 1.0950721e-07 0.3084727 0.0746125
0.03525919 0.092970714 -0.12343989 0.35460487 0.9350163 -2.1038103e-07 0.2498817 0.07457592
-0.0119852 0.09870721 -0.1710691 -0.12054379 0.9927081 1.227466e-07 0.3085099 0.01597464
-0.05648389 0.08183106 -0.12344 -0.5680587 0.82298815 3.6655942e-07 0.3670633 0.07465005
-0.05648392 0.08183106 -0.1710691 -0.5680707 0.82297975 2.7394782e-07 0.3671019 0.01601247
-0.08804282 0.046208404 -0.12344 -0.88545614 0.46472305 -8.5530665e-08 0.4256534 0.07468907
-0.08804282 0.046208408 -0.1710691 -0.88545626 0.4647227 2.0313674e-08 0.4256938 0.01605178
-0.07351951 -0.038585808 -0.12344 -0.88545597 -0.46472353 -7.161468e-06 0.06401999 0.3372869
-0.08303007 -2.529162e-07 -0.1046842 -0.9709415 -0.2393171 -4.302473e-07 0.007465485 0.3639821
-0.08303016 9.885582e-08 -0.12344 -0.9709414 -0.23931713 -1.0643678e-07 0.007465485 0.3372869
-0.04716654 -0.06833232 -0.12344 -0.56806165 -0.822986 -3.4819236e-06 0.120575 0.3372869
-0.07351942 -0.038586278 -0.1046842 -0.88545644 -0.4647225 -5.4121833e-06 0.06401999 0.3639821
-0.01000787 -0.08242478 -0.12344 -0.120536745 -0.9927089 -8.0420654e-07 0.1771298 0.3372869
-0.04716644 -0.068332426 -0.1046842 -0.5680665 -0.8229828 -1.0912547e-06 0.120575 0.3639821
0.02944272 -0.07763464 -0.1046842 0.35460848 -0.9350149 -9.349611e-07 0.2336853 0.3639821
-0.01000787 -0.08242478 -0.1046842 -0.12053656 -0.992709 -4.3392685e-08 0.1771298 0.3639821
0.02944278 -0.077634595 -0.12344 0.3546011 -0.9350177 -1.325193e-06 0.2336853 0.3372869
0.06214902 -0.055059128 -0.1046842 0.7485123 -0.6631209 3.7259458e-06 0.2902424 0.3639821
0.06214933 -0.055058897 -0.12344 0.74851084 -0.66312253 1.3586354e-06 0.2902424 0.3372869
0.08061745 -0.019870386 -0.1046842 0.97094345 -0.2393094 -1.948855e-06 0.3468005 0.3639821
0.08061744 -0.019870074 -0.1234399 0.9709425 -0.23931316 -3.6368149e-06 0.3468005 0.3372869
0.08061739 0.019870564 -0.1046842 0.9709415 0.23931697 4.3373382e-07 0.4033601 0.3639821
0.06214911 0.055058915 -0.1234399 0.74851173 0.6631215 -8.126952e-06 0.4599214 0.3372869
0.08061744 0.019870427 -0.1234399 0.97094214 0.23931435 9.756383e-07 0.4033601 0.3372869
0.02944269 0.077634715 -0.1234399 0.35460195 0.9350174 -2.6160652e-07 0.516486 0.3372869
0.06214887 0.055059414 -0.1046842 0.7485116 0.66312176 -6.0391612e-06 0.4599214 0.3639821
-0.01000812 0.08242476 -0.1046842 -0.120538846 0.9927086 1.3994961e-06 0.5730533 0.3639821
0.02944287 0.077634595 -0.1046842 0.3546045 0.9350164 2.539205e-06 0.516486 0.3639821
-0.04716651 0.068332404 -0.12344 -0.5680685 0.8229814 1.8716244e-06 0.6296232 0.3372869
-0.01000812 0.08242476 -0.1234399 -0.12053911 0.99270856 4.339267e-08 0.5730533 0.3372869
-0.07351951 0.038586043 -0.12344 -0.8854569 0.4647217 -3.3235135e-06 0.6861945 0.3372869
-0.0471666 0.068332285 -0.1046842 -0.56806266 0.8229853 2.4495976e-06 0.6296232 0.3639821
-0.08303016 9.885582e-08 -0.12344 -0.9709428 0.23931213 4.8231436e-06 0.7427664 0.3372869
-0.07351968 0.038585853 -0.1046842 -0.8854547 0.4647256 -1.0077259e-06 0.6861945 0.3639821
-0.09943216 2.0654523e-08 -0.12344 0 -4.371139e-08 1 0.8147439 0.6658201
-0.07351951 -0.038585808 -0.12344 0 -4.1159302e-07 1 0.8340774 0.7290785
-0.08303016 9.885582e-08 -0.12344 0 -4.371139e-08 1 0.8000147 0.6839296
-0.08804273 -0.046208415 -0.12344 0 -2.7439626e-07 1 0.8555349 0.7198879
-0.04716654 -0.06833232 -0.12344 0 4.871508e-07 1 0.8432577 0.7848874
-0.01198517 -0.09870713 -0.123440005 0 -9.214517e-07 1 0.8452049 0.8510098
-0.05648386 -0.08183103 -0.12344 0 8.7788993e-07 1 0.8665291 0.7867209
0.03525916 -0.09297066 -0.123440005 0 -5.691568e-07 1 0.7964461 0.8980264
-0.01000787 -0.08242478 -0.12344 0 -1.213358e-06 1 0.8254505 0.8385719
0.07442609 -0.065935686 -0.12344 0 8.8615835e-09 1 0.7314208 0.9169993
0.02944278 -0.077634595 -0.12344 0 -3.53623e-07 1 0.7847346 0.877832
0.09654285 -0.023795644 -0.12344 4.8038382e-06 -1.9009857e-06 1 0.6650251 0.9035805
0.06214933 -0.055058897 -0.12344 4.6154545e-07 -4.1658078e-07 1 0.7304345 0.893675
0.09654285 0.023795685 -0.12344 5.733625e-06 1.3639744e-06 1 0.612471 0.8608415
0.08061744 -0.019870074 -0.1234399 5.433231e-06 -2.618865e-06 1 0.6749917 0.8824691
0.06214911 0.055058915 -0.1234399 4.4201197e-06 4.1749254e-06 1 0.6088363 0.794786
0.08061744 0.019870427 -0.1234399 5.7336265e-06 1.4278421e-06 1 0.6311074 0.8467808
0.07442606 0.06593574 -0.12344 4.223437e-06 3.1921898e-06 1 0.5858001 0.7985743
0.02944269 0.077634715 -0.1234399 1.1241445e-06 5.241039e-07 1 0.613281 0.7383963
-0.01198517 0.09870721 -0.12343989 -1.0404161e-06 -7.65272e-07 1 0.6272205 0.6737271
0.03525919 0.092970714 -0.12343989 9.79946e-07 -4.3723148e-08 1 0.5911233 0.7310454
-0.05648389 0.08183106 -0.12344 -1.0348883e-06 -8.5868027e-07 1 0.6858203 0.6397503
-0.01000812 0.08242476 -0.1234399 -1.0389601e-06 -8.9846446e-07 1 0.6434235 0.6905338
-0.07351951 0.038586043 -0.12344 0 -1.6767714e-07 1 0.7488692 0.6597789
-0.04716651 0.068332404 -0.12344 -1.0329118e-06 -7.7947686e-07 1 0.6923569 0.6621615
-0.08804282 0.046208404 -0.12344 0 -1.9731215e-07 1 0.7534961 0.6368977
-0.08804276 -0.046208408 -0.1046842 0 4.371139e-08 -1 0.4675451 0.9854745
-0.08303007 -2.529162e-07 -0.1046842 0 4.371139e-08 -1 0.4054079 0.9628125
-0.07351942 -0.038586278 -0.1046842 0 4.371139e-08 -1 0.4619593 0.9628121
-0.09943216 2.1742032e-08 -0.1046842 0 -1.4656169e-07 -1 0.3998004 0.9855289
-0.07351968 0.038585853 -0.1046842 0 5.000739e-07 -1 0.3552934 0.9365797
-0.08303007 -2.529162e-07 -0.1046842 0 -3.2417017e-07 -1 0.4053847 0.96286
-0.08804282 0.046208415 -0.1046842 0 4.4820413e-07 -1 0.3398142 0.9540567
-0.0471666 0.068332285 -0.1046842 0 -3.151742e-07 -1 0.3231532 0.8900308
-0.05648389 0.08183106 -0.1046842 0 -1.12230644e-07 -1 0.3013249 0.8983124
-0.01000812 0.08242476 -0.1046842 0 5.6157063e-07 -1 0.3163267 0.8338773
-0.01198517 0.09870721 -0.10468419 0 6.7228825e-07 -1 0.29315 0.8310665
0.02944287 0.077634595 -0.1046842 0 -2.6620444e-07 -1 0.3363782 0.7809838
0.03525919 0.09297071 -0.10468419 0 -3.4029085e-07 -1 0.3171627 0.767724
0.06214887 0.055059414 -0.1046842 0 4.371139e-08 -1 0.3787136 0.7434674
0.07442609 0.065935746 -0.1046842 0 4.371139e-08 -1 0.3678615 0.7227965
0.08061739 0.019870564 -0.1046842 0 1.5376477e-07 -1 0.4336344 0.7299224
0.09654288 0.023795694 -0.1046842 0 1.2481057e-07 -1 0.4336313 0.7065762
0.08061745 -0.019870386 -0.1046842 0 6.494416e-08 -1 0.4885581 0.7434511
0.09654287 -0.023795646 -0.1046842 0 4.371139e-08 -1 0.4994043 0.7227781
0.06214902 -0.055059128 -0.1046842 0 -2.0422002e-07 -1 0.5309022 0.780953
0.03525916 -0.09297066 -0.104684204 0 5.2023904e-07 -1 0.5741395 0.8310191
0.07442612 -0.065935686 -0.1046842 0 -2.6348835e-07 -1 0.5501127 0.7676892
-0.01000787 -0.08242478 -0.1046842 0 -1.3572637e-07 -1 0.5441561 0.8899817
0.02944272 -0.07763464 -0.1046842 0 7.7950267e-07 -1 0.5509666 0.833836
-0.01198517 -0.09870713 -0.104684204 0 -6.87579e-08 -1 0.5659822 0.8982573
-0.04716644 -0.068332426 -0.1046842 0 2.826497e-07 -1 0.5120329 0.9365286
-0.05648386 -0.08183103 -0.1046842 0 4.2771427e-07 -1 0.5275121 0.953999
-0.0119852 -0.09870718 0.093176946 -0.119505264 -0.984216 0.13052732 0.1860097 0.7235003
-0.08804282 0.046208408 0.09317695 -0.87788105 0.46074727 0.13052587 0.3160171 0.4757923
-0.08638754 -1.7764158e-07 0.09317695 -0.9709428 0.23931216 5.9720774e-06 0.7725296 0.3355685
-0.09943216 8.031795e-09 0.07806421 -0.97094184 0.23931567 1.0460821e-08 0.7731847 0.3010539
-0.09943213 1.30932465e-08 0.09317695 0 4.371139e-08 -1 0.10712 0.9995
-0.09943216 8.031795e-09 0.07806421 0 -4.2998053e-07 1 0.7804435 0.3677819
0.07442609 -0.065935686 -0.12344 0.5680646 -0.822984 -3.441229e-07 0.7771951 0.0749668
-0.08303007 -2.529162e-07 -0.1046842 -0.97094315 0.23931023 9.381518e-06 0.7427664 0.3639821
-0.09943216 2.1742032e-08 -0.1046842 0 4.371139e-08 -1 0.399822 0.9854745
3 0 1 2
3 0 2 3
3 0 3 4
3 0 4 5
3 0 5 6
3 0 6 7
3 0 7 8
3 0 8 9
3 0 9 10
3 0 10 11
3 0 11 12
3 0 12 13
3 0 13 1
3 14 2 1
3 2 15 3
3 3 16 4
3 16 5 4
3 17 6 5
3 6 18 7
3 7 19 8
3 19 9 8
3 20 10 9
3 10 21 11
3 21 12 11
3 12 22 13
3 13 14 1
3 23 24 14
3 25 15 24
3 26 16 15
3 16 27 17
3 17 28 29
3 29 30 18
3 30 19 18
3 31 20 19
3 20 32 33
3 33 34 21
3 21 35 36
3 36 37 22
3 37 14 22
3 23 38 25
3 25 39 26
3 39 40 26
3 41 27 40
3 42 28 27
3 43 30 28
3 44 31 30
3 45 46 31
3 47 32 46
3 48 34 32
3 49 35 34
3 35 50 37
3 50 23 37
3 51 38 52
3 38 53 39
3 39 54 41
3 54 42 41
3 55 43 42
3 56 44 43
3 57 45 44
3 58 47 45
3 59 48 47
3 48 60 49
3 49 61 62
3 61 50 62
3 63 52 50
3 64 65 51
3 66 53 65
3 67 54 53
3 54 68 55
3 55 69 56
3 56 70 57
3 70 58 57
3 71 59 58
3 72 73 59
3 74 60 73
3 75 61 60
3 76 63 61
3 63 64 51
3 77 78 79
3 80 81 77
3 80 82 83
3 84 85 82
3 86 87 85
3 88 89 87
3 90 91 89
3 92 91 93
3 94 95 92
3 96 97 94
3 98 99 96
3 100 101 98
3 102 103 100
3 104 105 106
3 106 107 108
3 108 109 110
3 110 111 112
3 112 113 114
3 114 115 116
3 116 117 118
3 118 119 120
3 120 121 122
3 122 123 124
3 124 125 126
3 126 127 128
3 127 104 128
3 129 105 130
3 131 107 105
3 132 109 107
3 133 111 109
3 111 134 113
3 134 115 113
3 115 135 117
3 135 119 117
3 136 121 119
3 137 123 121
3 123 138 125
3 125 139 127
3 139 130 127
3 140 141 142
3 142 141 143
3 143 141 144
3 144 141 145
3 145 141 146
3 146 141 147
3 147 141 148
3 148 141 149
3 149 141 150
3 150 141 151
3 151 141 152
3 152 141 153
3 153 141 140
3 154 155 156
3 157 155 158
3 159 160 157
3 159 161 162
3 163 161 164
3 165 166 163
3 165 167 168
3 169 167 170
3 171 172 169
3 173 174 171
3 175 176 173
3 177 178 175
3 179 180 177
3 181 182 183
3 184 185 186
3 187 188 185
3 189 188 190
3 191 192 189
3 191 193 194
3 195 193 196
3 197 198 195
3 199 200 197
3 201 202 199
3 203 204 201
3 205 206 203
3 205 183 207
3 208 209 210
3 211 209 212
3 213 214 211
3 215 216 213
3 217 218 215
3 219 220 217
3 221 222 219
3 221 223 224
3 225 226 223
3 227 228 226
3 229 230 228
3 231 232 230
3 233 234 232
3 131 140 142
3 139 140 129
3 138 153 139
3 235 152 138
3 137 151 235
3 137 149 150
3 136 148 149
3 135 147 148
3 134 147 236
3 237 146 134
3 133 145 237
3 133 143 144
3 131 143 132
3 238 239 240
3 241 242 238
3 243 244 241
3 245 246 243
3 247 248 245
3 249 250 251
3 252 253 249
3 254 255 252
3 256 257 254
3 256 258 259
3 260 261 258
3 262 263 261
3 240 263 264
3 265 266 267
3 268 269 265
3 270 271 268
3 270 272 273
3 274 275 272
3 276 277 275
3 278 279 277
3 280 279 281
3 282 283 280
3 282 284 285
3 286 284 287
3 288 289 286
3 290 291 288
3 292 293 294
3 295 296 293
3 297 296 298
3 299 300 297
3 301 302 299
3 303 304 301
3 305 306 303
3 305 307 308
3 309 310 307
3 311 310 312
3 313 314 311
3 313 315 316
3 317 294 315
3 318 319 320
3 321 322 323
3 324 325 322
3 326 327 325
3 328 329 327
3 330 331 329
3 332 333 331
3 334 335 333
3 336 337 335
3 338 337 339
3 338 340 341
3 342 343 340
3 344 320 343
3 14 24 2
3 2 24 15
3 3 15 16
3 16 17 5
3 17 29 6
3 6 29 18
3 7 18 19
3 19 20 9
3 20 33 10
3 10 33 21
3 21 36 12
3 12 36 22
3 13 22 14
3 23 25 24
3 25 26 15
3 26 40 16
3 16 40 27
3 17 27 28
3 29 28 30
3 30 31 19
3 31 46 20
3 20 46 32
3 33 32 34
3 21 34 35
3 36 35 37
3 37 23 14
3 23 52 38
3 25 38 39
3 39 41 40
3 41 42 27
3 42 43 28
3 43 44 30
3 44 45 31
3 45 47 46
3 47 48 32
3 48 49 34
3 49 62 35
3 35 62 50
3 50 52 23
3 51 65 38
3 38 65 53
3 39 53 54
3 54 55 42
3 55 56 43
3 56 57 44
3 57 58 45
3 58 59 47
3 59 73 48
3 48 73 60
3 49 60 61
3 61 63 50
3 63 51 52
3 64 66 65
3 66 67 53
3 67 345 54
3 54 345 68
3 55 68 69
3 56 69 70
3 70 71 58
3 71 72 59
3 72 74 73
3 74 75 60
3 75 76 61
3 76 346 63
3 63 346 64
3 77 81 78
3 80 83 81
3 80 84 82
3 84 86 85
3 86 88 87
3 88 90 89
3 90 93 91
3 92 95 91
3 94 97 95
3 96 99 97
3 98 101 99
3 100 103 101
3 102 347 103
3 104 130 105
3 106 105 107
3 108 107 109
3 110 109 111
3 112 111 113
3 114 113 115
3 116 115 117
3 118 117 119
3 120 119 121
3 122 121 123
3 124 123 125
3 126 125 127
3 127 130 104
3 129 131 105
3 131 132 107
3 132 133 109
3 133 237 111
3 111 237 134
3 134 236 115
3 115 236 135
3 135 136 119
3 136 137 121
3 137 235 123
3 123 235 138
3 125 138 139
3 139 129 130
3 154 158 155
3 157 160 155
3 159 162 160
3 159 164 161
3 163 166 161
3 165 168 166
3 165 170 167
3 169 172 167
3 171 174 172
3 173 176 174
3 175 178 176
3 177 180 178
3 179 348 180
3 181 349 182
3 184 187 185
3 187 190 188
3 189 192 188
3 191 194 192
3 191 196 193
3 195 198 193
3 197 200 198
3 199 202 200
3 201 204 202
3 203 206 204
3 205 207 206
3 205 181 183
3 208 212 209
3 211 214 209
3 213 216 214
3 215 218 216
3 217 220 218
3 219 222 220
3 221 224 222
3 221 225 223
3 225 227 226
3 227 229 228
3 229 231 230
3 231 233 232
3 233 350 234
3 131 129 140
3 139 153 140
3 138 152 153
3 235 151 152
3 137 150 151
3 137 136 149
3 136 135 148
3 135 236 147
3 134 146 147
3 237 145 146
3 133 144 145
3 133 132 143
3 131 142 143
3 238 242 239
3 241 244 242
3 243 246 244
3 245 248 246
3 247 351 248
3 249 253 250
3 252 255 253
3 254 257 255
3 256 259 257
3 256 260 258
3 260 262 261
3 262 264 263
3 240 239 263
3 265 269 266
3 268 271 269
3 270 273 271
3 270 274 272
3 274 276 275
3 276 278 277
3 278 281 279
3 280 283 279
3 282 285 283
3 282 287 284
3 286 289 284
3 288 291 289
3 290 352 291
3 292 295 293
3 295 298 296
3 297 300 296
3 299 302 300
3 301 304 302
3 303 306 304
3 305 308 306
3 305 309 307
3 309 312 310
3 311 314 310
3 313 316 314
3 313 317 315
3 317 292 294
3 318 353 319
3 321 324 322
3 324 326 325
3 326 328 327
3 328 330 329
3 330 332 331
3 332 334 333
3 334 336 335
3 336 339 337
3 338 341 337
3 338 342 340
3 342 344 343
3 344 318 320
